<?xml version="1.0" encoding="utf-8"?>
<!-- Svg Vector Icons : http://www.onlinewebfonts.com/icon -->
<!DOCTYPE svg PUBLIC "-//W3C//DTD SVG 1.1//EN" "http://www.w3.org/Graphics/SVG/1.1/DTD/svg11.dtd">
<svg version="1.1" xmlns="http://www.w3.org/2000/svg" xmlns:xlink="http://www.w3.org/1999/xlink" x="0px" y="0px" viewBox="0 0 1000 1000" enable-background="new 0 0 1000 1000" xml:space="preserve">
<metadata> Svg Vector Icons : http://www.onlinewebfonts.com/icon </metadata>
<g><g transform="translate(0.000000,511.000000) scale(0.100000,-0.100000)"><path d="M4595.4,3355v-1655h407.4h407.4v1655v1655h-407.4h-407.4V3355z"/><path d="M2543.1,3428.8c-1347-878.5-2136.3-2485.1-2001.3-4079c53.5-631.4,183.3-1094.9,463.4-1660.1c234.3-468.5,453.2-771.5,840.3-1158.5c387-387,690-606,1158.5-840.3c524.5-259.7,980.3-394.6,1545.6-455.8c1275.6-140,2594.6,313.2,3536.7,1212c707.9,679.9,1130.5,1453.9,1324,2426.5c78.9,389.6,84,1173.8,12.7,1565.9c-170.6,929.4-593.3,1751.8-1240,2403.6c-310.6,310.6-878.4,741-937,705.3c-28-17.8-384.5-636.6-384.5-669.7c0-12.7,99.3-91.6,224.1-175.7C7844.3,2191.3,8384.1,1374,8598,424.2c81.5-374.3,84-1082.1,0-1466.6c-157.9-733.3-483.8-1329.1-1008.3-1856.2C5652-4833.7,2354.7-4036.7,1519.5-1429.4c-135,415.1-168.1,651.9-168.1,1130.5c2.5,608.6,99.3,1044,356.5,1581.2c257.2,539.8,743.5,1107.6,1219.6,1423.3c127.3,84,231.7,152.8,236.8,155.3c12.7,7.6-389.6,697.7-404.8,697.7C2749.3,3558.7,2652.6,3500.1,2543.1,3428.8z"/></g></g>
</svg>